<?xml version="1.0" standalone="no"?>
<!DOCTYPE svg PUBLIC "-//W3C//DTD SVG 20010904//EN"
 "http://www.w3.org/TR/2001/REC-SVG-20010904/DTD/svg10.dtd">
<svg version="1.0" xmlns="http://www.w3.org/2000/svg"
 width="100.000000pt" height="100.000000pt" viewBox="0 0 100.000000 100.000000"
 preserveAspectRatio="xMidYMid meet">

<g transform="translate(0.000000,100.000000) scale(0.100000,-0.100000)"
fill="#000000" stroke="none">
<path d="M75 783 c-5 -54 -8 -125 -7 -158 1 -33 5 -178 8 -323 l5 -262 419 0
419 0 5 262 c3 145 7 288 8 318 1 30 -2 101 -7 158 l-8 102 -417 0 -417 0 -8
-97z m123 -135 c-3 -91 -4 -93 -30 -102 -22 -8 -32 -6 -48 9 -21 19 -25 56
-14 139 l7 46 44 0 44 0 -3 -92z m142 2 c0 -87 -1 -91 -25 -102 -19 -8 -31 -8
-50 0 -24 11 -25 15 -25 102 l0 90 50 0 50 0 0 -90z m140 0 c0 -87 -1 -91 -25
-102 -19 -8 -31 -8 -50 0 -24 11 -25 15 -25 102 l0 90 50 0 50 0 0 -90z m140
0 c0 -87 -1 -91 -25 -102 -19 -8 -31 -8 -50 0 -24 11 -25 15 -25 102 l0 90 50
0 50 0 0 -90z m140 0 c0 -87 -1 -91 -25 -102 -19 -8 -31 -8 -50 0 -24 11 -25
15 -25 102 l0 90 50 0 50 0 0 -90z m135 13 c5 -45 4 -83 -2 -92 -18 -28 -40
-36 -67 -23 -25 11 -26 15 -26 102 l0 90 44 0 44 0 7 -77z m-375 -383 l0 -120
-160 0 -160 0 0 120 0 120 160 0 160 0 0 -120z m280 -40 l0 -160 -90 0 -90 0
0 160 0 160 90 0 90 0 0 -160z"/>
</g>
</svg>
